<svg width="61" height="54" viewBox="0 0 61 54" fill="none" xmlns="http://www.w3.org/2000/svg">
<path d="M43.8613 1.96854C42.6405 1.85271 41.2954 2.035 39.9748 2.57765C37.0166 3.79318 33.905 6.73884 30.6399 11.4146C28.2642 14.7988 26.7119 17.7829 26.7025 17.9103L26.6186 18.0065L26.4912 17.9971C26.3421 17.9349 23.1931 16.8826 19.1243 16.1465C13.5149 15.1173 9.17837 15.2322 6.27305 16.426C4.95245 16.9687 3.86773 17.7849 3.08114 18.7255C2.05501 20.135 1.09035 22.4455 2.79647 25.696C3.78918 27.5108 5.41866 29.3727 7.07926 31.1601C8.11903 32.3382 9.1588 33.5162 9.99668 34.6538C9.62806 24.7411 24.0807 22.1982 24.0807 22.1982C19.2161 35.0022 12.9179 32.8977 12.2848 32.1082C11.9331 33.0554 11.6711 34.5214 11.6052 35.4129C16.2065 38.6469 21.4282 34.5254 23.7511 31.163C24.8178 29.5515 25.7042 27.9524 26.3671 26.2599L26.5379 26.375C26.4134 26.6731 26.3946 26.9278 26.3012 27.1514C25.8373 28.5769 25.4697 30.0863 25.1549 31.574C24.9117 32.7853 24.6996 33.9221 24.5187 34.9843C24.2878 36.3758 24.1314 37.7984 23.978 39.5285C23.8715 40.6219 23.7651 41.7153 23.7238 42.9671C23.7108 43.8369 23.6977 44.7066 23.7375 45.5547L23.7121 46.2443L23.7048 47.7291L27.5018 42.0939L33.2427 45.8474L32.1357 43.1534L31.8847 42.3922C31.6025 41.7055 31.3514 40.9442 31.1221 40.2358L30.9918 39.9189L30.9578 39.6859C30.5642 38.4275 30.2018 37.0946 29.8393 35.7617C29.5854 34.6929 29.3408 33.4968 29.1491 32.279C28.8923 30.9027 28.6449 29.399 28.5465 27.9576L28.488 27.3642L28.4757 27.184C28.9323 27.2434 29.3237 27.1443 29.7463 26.9706L30.6972 26.5799C31.1197 26.4063 31.4678 26.2015 31.7508 25.8383C31.7725 25.8911 31.847 25.9222 31.8687 25.975L32.2442 26.4382C33.1878 27.5323 34.0691 28.7755 34.8541 29.9347C35.5741 30.9355 36.2195 31.9052 36.8338 32.9493C37.4915 34.0992 38.1709 35.3018 38.7758 36.4734L38.9154 36.663L39.0457 36.9799C39.3807 37.6449 39.7902 38.341 40.0724 39.0278L41.4833 42.4613L42.9264 35.7557L49.5886 37.0932L48.5394 36.0425C48.3997 35.8529 48.229 35.7379 48.0893 35.5483L46.2268 33.7204C45.3173 32.8592 44.4729 32.1566 43.6813 31.4322C42.3557 30.3099 41.1915 29.4299 40.1018 28.5811C39.1734 27.9747 38.2762 27.2937 37.177 26.5722C35.9071 25.7357 34.6061 24.9737 33.3268 24.2645C33.1032 24.1712 32.8579 24.025 32.6126 23.8788L32.6004 23.6986C34.24 24.3832 36.0693 24.9282 37.939 25.2712C41.955 26.029 48.5131 25.31 49.5111 19.7752C48.8592 19.2404 47.695 18.3605 46.7044 17.9031C46.8309 18.9625 43.8632 24.8127 31.4232 19.1811C31.4232 19.1811 43.4882 10.8276 50.1429 18.1573C49.9389 16.7593 49.85 15.1905 49.8139 13.6C49.6852 11.1831 49.5876 8.69178 48.9429 6.67217C47.8924 3.21402 45.582 2.24936 43.8613 1.96854ZM32.0859 21.996C31.3009 20.8367 29.7263 20.3106 28.3529 20.8749L27.4021 21.2656C26.0287 21.83 25.2789 23.3112 25.5358 24.6875C25.4706 24.529 25.331 24.3394 25.2442 24.1281C24.6147 22.5962 25.3398 20.7547 26.9246 20.1035L27.8754 19.7128C29.4601 19.0616 31.2488 19.8085 31.9 21.3932C31.9868 21.6045 32.0208 21.8375 32.0859 21.996Z" fill="#451221"/>
</svg>
