<svg width="111" height="110" viewBox="0 0 111 110" fill="none" xmlns="http://www.w3.org/2000/svg">
<path d="M94.0099 46.2956C92.996 44.9103 91.5544 43.6719 89.7585 42.7944C85.7356 40.8287 79.7593 40.3112 71.8296 41.2419C66.0786 41.9024 61.5121 43.0526 61.3701 43.1612L61.1913 43.1628L61.0828 43.0208C61.0093 42.8069 59.1823 38.5327 56.1692 33.5899C52.0304 26.7622 47.8778 22.3305 43.9267 20.3999C42.1308 19.5224 40.268 19.1461 38.5521 19.1975C36.1227 19.4343 32.8076 20.5731 30.9922 25.3812C30.0159 28.1077 29.5825 31.5444 29.256 34.9444C28.9899 37.1281 28.7238 39.3118 28.3124 41.2464C38.344 31.6431 54.4445 44.4045 54.4445 44.4045C36.5206 51.2193 32.8666 42.6709 33.1042 41.2741C31.7858 41.7868 30.0079 42.8758 29.0136 43.6358C29.9075 51.4586 39.0765 53.0911 44.7556 52.3956C47.434 52.0135 49.9319 51.4543 52.3196 50.5743L52.358 50.86C51.9302 51.007 51.6462 51.2241 51.3254 51.3343C49.4021 52.1743 47.4805 53.1931 45.6307 54.247C44.1369 55.1188 42.75 55.9539 41.47 56.7523C39.799 57.8046 38.1647 58.9638 36.2113 60.4119C34.968 61.3173 33.7248 62.2226 32.3762 63.3434C31.4538 64.1385 30.5313 64.9336 29.6807 65.7638L28.9355 66.3785L27.3747 67.7516L36.8032 66.4854L38.213 75.9841L40.0032 72.3204L40.5664 71.3498C41.0228 70.4159 41.586 69.4453 42.1142 68.5465L42.3248 68.1155L42.537 67.8633C43.488 66.2812 44.5459 64.6624 45.6039 63.0437C46.4863 61.7841 47.5108 60.4159 48.6071 59.0828C49.8087 57.5343 51.1523 55.8771 52.5695 54.4339L53.136 53.8208L53.3131 53.6404C53.6756 54.1734 54.1433 54.491 54.718 54.7718L56.0111 55.4036C56.5858 55.6844 57.1237 55.8583 57.767 55.8167C57.7319 55.8885 57.7686 55.9954 57.7335 56.0673L57.598 56.8909C57.3303 58.8958 56.8487 60.9742 56.3654 62.8738C55.9875 64.5578 55.5728 66.135 55.0512 67.7488C54.4594 69.5064 53.8325 71.3358 53.1688 73.0582L53.1003 73.3807L52.8896 73.8117C52.5052 74.7807 52.1574 75.8566 51.7011 76.7905L49.4195 81.4598L57.7794 76.7349L62.5746 84.9511L62.6986 82.876C62.7672 82.5536 62.7288 82.2679 62.7974 81.9454L62.9786 78.2965C63.0341 76.5438 62.9843 75.0067 63.0063 73.5047C62.9483 71.0736 62.7867 69.0369 62.6618 67.1071C62.4332 65.5716 62.3115 63.9994 62.0446 62.1782C61.7392 60.0713 61.327 58.0011 60.8796 56.0028C60.7694 55.6819 60.6943 55.2893 60.6192 54.8966L60.7963 54.7162C61.6045 57.0689 62.7352 59.4901 64.1148 61.7659C67.056 66.6736 73.9066 72.8686 80.6274 68.7666C80.5808 67.587 80.4192 65.5502 79.9767 64.0882C78.9857 65.2058 70.1033 67.5397 64.4297 49.2836C64.4297 49.2836 84.3913 54.1429 82.9082 67.9233C84.1816 66.4098 85.7408 64.858 87.3718 63.3412C89.7815 60.9592 92.2982 58.5404 93.8125 55.9877C96.4548 51.6726 95.316 48.3576 94.0099 46.2956ZM62.1 52.5946C62.5832 50.695 61.6697 48.5579 59.802 47.6453L58.5089 47.0134C56.6412 46.1008 54.3939 46.6935 53.1923 48.2421C53.2976 48.0266 53.3661 47.7041 53.5065 47.4168C54.5245 45.3335 57.1261 44.38 59.2812 45.433L60.5742 46.0649C62.7293 47.1179 63.611 49.6844 62.5579 51.8395C62.4175 52.1268 62.2053 52.3791 62.1 52.5946Z" fill="#D4608E"/>
</svg>
