<svg width="84" height="73" viewBox="0 0 84 73" fill="none" xmlns="http://www.w3.org/2000/svg">
<path d="M62.9218 2.7893C61.2243 2.53327 59.3299 2.68436 57.442 3.34109C53.2132 4.81216 48.6364 8.6899 43.7116 14.9743C40.1297 19.5218 37.7298 23.5735 37.7068 23.7508L37.582 23.8788L37.4047 23.8559C37.2012 23.7574 32.8803 22.0436 27.2494 20.701C19.4876 18.8298 13.4167 18.656 9.26341 20.1008C7.37554 20.7575 5.79631 21.8148 4.62421 23.069C3.08113 24.9603 1.5545 28.1156 3.68881 32.7909C4.93656 35.4044 7.0708 38.1327 9.25429 40.7593C10.6169 42.4863 11.9795 44.2132 13.0631 45.868C13.3121 31.9829 33.7112 29.5427 33.7112 29.5427C25.9238 47.0659 17.2821 43.6385 16.4579 42.4861C15.8932 43.783 15.4139 45.8121 15.2531 47.0532C21.4357 51.9287 29.0528 46.57 32.5592 42.0488C34.1745 39.8785 35.537 37.7115 36.5942 35.3967L36.824 35.5707C36.627 35.9778 36.5811 36.3324 36.4333 36.6378C35.6749 38.5947 35.0446 40.6763 34.4898 42.7317C34.0565 44.4062 33.6724 45.9789 33.3375 47.4498C32.9075 49.3771 32.5792 51.3537 32.2313 53.7604C31.9982 55.2805 31.7652 56.8007 31.6109 58.5474C31.5256 59.7623 31.4403 60.9771 31.4305 62.1656L31.3418 63.1277L31.2172 65.2027L36.9594 57.6181L44.695 63.3078L43.3553 59.4565L43.0631 58.373C42.7216 57.3913 42.4293 56.3078 42.1633 55.2999L42.0057 54.8468L41.9762 54.5185C41.523 52.7291 41.1191 50.8379 40.7152 48.9467C40.4426 47.4331 40.193 45.7423 40.0189 44.0251C39.7661 42.0814 39.5362 39.9604 39.5098 37.9379L39.4737 37.1039L39.4704 36.8511C40.1041 36.9693 40.6589 36.8609 41.2631 36.6508L42.6223 36.1779C43.2264 35.9678 43.7288 35.7084 44.1523 35.2224C44.1786 35.2979 44.2804 35.3472 44.3066 35.4227L44.7959 36.099C46.0304 37.7012 47.1665 39.507 48.1746 41.188C49.1038 42.6425 49.9312 44.0477 50.7094 45.5547C51.5402 47.2128 52.3972 48.9463 53.1524 50.6306L53.333 50.9064L53.4906 51.3595C53.9076 52.3149 54.4264 53.3196 54.7679 54.3013L56.4754 59.2098L59.0098 49.9475L68.2195 52.3309L66.8339 50.7812C66.6533 50.5054 66.4235 50.3314 66.2429 50.0556L63.7803 47.3568C62.5753 46.0829 61.4491 45.0356 60.3984 43.962C58.6319 42.2909 57.0723 40.971 55.6145 39.7004C54.3635 38.7812 53.1618 37.7601 51.681 36.6668C49.9703 35.3995 48.2104 34.234 46.4768 33.144C46.1715 32.9963 45.8398 32.773 45.5082 32.5498L45.5049 32.2969C47.7442 33.3804 50.2592 34.2832 52.8465 34.9069C58.4019 36.2759 67.6247 35.7765 69.4466 28.1165C68.5765 27.3187 67.0169 25.9988 65.6674 25.2831C65.7627 26.7737 61.1631 34.7228 44.2078 25.8913C44.2078 25.8913 61.7173 15.1444 70.4545 25.9035C70.2771 23.9335 70.2738 21.7337 70.3459 19.5076C70.3524 16.1192 70.4081 12.6291 69.6627 9.75623C68.4608 4.84117 65.3055 3.31455 62.9218 2.7893ZM44.9171 29.8772C43.9091 28.1962 41.7487 27.3393 39.7853 28.0223L38.426 28.4951C36.4626 29.1781 35.3004 31.1908 35.5533 33.1345C35.4745 32.908 35.2939 32.6322 35.1888 32.3301C34.427 30.1402 35.5826 27.6219 37.8481 26.8338L39.2073 26.361C41.4728 25.5729 43.9156 26.7548 44.7037 29.0202C44.8088 29.3223 44.8383 29.6506 44.9171 29.8772Z" fill="#D4608E"/>
</svg>
