<svg width="109" height="105" viewBox="0 0 109 105" fill="none" xmlns="http://www.w3.org/2000/svg">
<path d="M90.0304 35.3457C88.7389 34.2147 87.0621 33.3204 85.1181 32.8554C80.7635 31.8137 74.8181 32.6113 67.2819 35.2479C61.8131 37.1459 57.6071 39.2638 57.4921 39.4007L57.318 39.4413L57.1811 39.3263C57.0628 39.1336 54.3481 35.3603 50.3302 31.1931C44.8027 25.4316 39.784 22.0115 35.5072 20.9885C33.5632 20.5235 31.6631 20.5623 29.9997 20.9864C27.6803 21.747 24.6931 23.581 23.9693 28.6692C23.6107 31.543 23.9368 34.9915 24.3592 38.3809C24.5754 40.5701 24.7916 42.7593 24.8118 44.7371C32.5092 33.1782 51.004 42.1236 51.004 42.1236C34.9963 52.6812 29.567 45.1347 29.4944 43.7197C28.3195 44.5074 26.8217 45.9577 26.017 46.9162C28.5944 54.3561 37.8987 53.9509 43.2898 52.0343C45.8204 51.0777 48.1364 49.9875 50.275 48.6082L50.3747 48.8787C49.9892 49.1153 49.7593 49.3892 49.4702 49.5666C47.7763 50.8056 46.123 52.2188 44.5474 53.6505C43.2794 54.827 42.1079 55.9443 41.0327 57.0024C39.6312 58.3936 38.2889 59.8811 36.698 61.7202C35.682 62.8747 34.6659 64.0293 33.5941 65.4171C32.8671 66.3941 32.1402 67.3711 31.491 68.3668L30.8976 69.1291L29.6736 70.8094L38.5994 67.5186L42.0457 76.4817L42.9943 72.5159L43.3325 71.4459C43.5743 70.435 43.9124 69.365 44.232 68.3727L44.3436 67.9061L44.4957 67.6137C45.0791 65.8624 45.7587 64.052 46.4384 62.2415C47.0251 60.8199 47.7267 59.2613 48.5061 57.7214C49.3413 55.9481 50.2915 54.038 51.36 52.3205L51.7793 51.5987L51.9128 51.384C52.3828 51.8253 52.9085 52.0332 53.5306 52.182L54.9302 52.5168C55.5523 52.6656 56.1152 52.7181 56.734 52.5372C56.7154 52.615 56.7745 52.7114 56.7559 52.7891L56.8032 53.6225C56.9789 55.6376 56.9618 57.7709 56.9042 59.7302C56.9024 61.4561 56.8415 63.0857 56.6841 64.7745C56.4896 66.6188 56.2765 68.5408 56.0042 70.3665L56.0076 70.6961L55.896 71.1627C55.7319 72.1922 55.6271 73.318 55.3853 74.3289L54.1762 79.3833L61.3053 72.9499L67.776 79.9234L67.4448 77.8712C67.4414 77.5415 67.3417 77.2711 67.3383 76.9414L66.7199 73.3407C66.392 71.6181 66.0084 70.1288 65.7025 68.6581C65.1161 66.2981 64.5144 64.3456 63.9719 62.4895C63.4141 61.0407 62.9527 59.5328 62.2952 57.8135C61.538 55.8238 60.6845 53.8933 59.8123 52.0405C59.6348 51.7514 59.476 51.3845 59.3171 51.0177L59.4506 50.803C60.7522 52.9229 62.3833 55.0395 64.2258 56.96C68.166 61.1086 76.2022 65.6616 81.8672 60.1933C81.5647 59.0522 80.963 57.0997 80.2126 55.7692C79.489 57.0759 71.3288 61.2897 61.8126 44.7091C61.8126 44.7091 82.3534 45.1009 83.9094 58.8732C84.8224 57.1185 86.0058 55.2642 87.267 53.4284C89.0997 50.5784 91.0287 47.6692 91.9501 44.8479C93.5885 40.0606 91.7545 37.0735 90.0304 35.3457ZM60.2605 48.4482C60.3181 46.489 58.9608 44.6024 56.939 44.1188L55.5394 43.784C53.5176 43.3004 51.4535 44.3686 50.6183 46.1418C50.6741 45.9086 50.6707 45.5789 50.7451 45.2679C51.2845 43.0128 53.6158 41.5152 55.9486 42.0732L57.3482 42.408C59.681 42.966 61.1009 45.2787 60.5429 47.6115C60.4685 47.9225 60.3163 48.215 60.2605 48.4482Z" fill="#D4608E"/>
</svg>
