<svg width="84" height="80" viewBox="0 0 84 80" fill="none" xmlns="http://www.w3.org/2000/svg">
<path fill-rule="evenodd" clip-rule="evenodd" d="M78.4982 5.027C78.0259 4.55451 77.4652 4.17969 76.8481 3.92396C76.2309 3.66823 75.5695 3.53661 74.9014 3.53661C74.2334 3.53661 73.5719 3.66823 72.9548 3.92396C72.3377 4.17969 71.777 4.55451 71.3047 5.027L39.2553 37.0765L43.6346 41.4541L66.3417 18.7435C65.7888 17.6611 65.5932 16.4313 65.7829 15.2307C65.9726 14.0301 66.5379 12.9205 67.3976 12.0613L72.0865 7.37235C72.4182 7.04046 72.8681 6.85392 73.3373 6.85375C73.8064 6.85358 74.2565 7.03981 74.5884 7.37146C74.9203 7.70311 75.1068 8.15302 75.107 8.62222C75.1071 9.09141 74.9209 9.54145 74.5893 9.87334L69.8986 14.564C69.6834 14.7671 69.5113 15.0112 69.3922 15.282C69.2731 15.5528 69.2096 15.8448 69.2054 16.1406C69.2012 16.4364 69.2565 16.73 69.3678 17.0041C69.4792 17.2781 69.6444 17.5271 69.8537 17.7361C70.063 17.9452 70.3121 18.1101 70.5863 18.2211C70.8605 18.3322 71.1542 18.3871 71.4499 18.3825C71.7457 18.378 72.0376 18.3142 72.3083 18.1948C72.5789 18.0754 72.8229 17.903 73.0257 17.6876L78.4964 12.2169C78.9686 11.7447 79.3432 11.1841 79.5988 10.5671C79.8544 9.95016 79.9859 9.28889 79.9859 8.62107C79.9859 7.95326 79.8544 7.29198 79.5988 6.67501C79.3432 6.05803 78.9686 5.49744 78.4964 5.02524L78.4982 5.027ZM68.8444 21.2463C69.9267 21.7994 71.1564 21.9952 72.357 21.8059C73.5575 21.6165 74.6672 21.0515 75.5267 20.1921L80.9992 14.7197C81.7998 13.9189 82.4349 12.9683 82.8682 11.9221C83.3014 10.8759 83.5244 9.75458 83.5243 8.62222C83.5242 7.48985 83.3011 6.36859 82.8677 5.32245C82.4343 4.27631 81.799 3.32578 80.9983 2.52513C80.1975 1.72448 79.2469 1.0894 78.2007 0.656135C77.1545 0.222873 76.0332 -8.21068e-05 74.9008 2.26822e-08C73.7685 8.21522e-05 72.6472 0.2232 71.6011 0.656614C70.5549 1.09003 69.6044 1.72525 68.8037 2.52602L36.5862 34.7435C35.3237 34.0289 33.8617 33.7478 32.4242 33.9433C30.9866 34.1388 29.6528 34.8001 28.6269 35.826L3.29866 61.1525C1.64073 62.8109 0.709351 65.0599 0.709351 67.405C0.709351 69.75 1.64073 71.999 3.29866 73.6574L7.05191 77.4107C8.71035 79.0686 10.9594 80 13.3044 80C15.6494 80 17.8984 79.0686 19.5569 77.4107L44.8851 52.0842C45.9104 51.058 46.5712 49.7241 46.7664 48.2866C46.9616 46.8492 46.6804 45.3873 45.9658 44.1249L68.8444 21.2463ZM35.5038 38.327C34.9234 37.747 34.1364 37.4212 33.3159 37.4212C32.4953 37.4212 31.7083 37.747 31.1279 38.327L27.6877 41.7654L38.944 53.0216L42.3842 49.5832C42.6716 49.2958 42.8996 48.9545 43.0552 48.579C43.2108 48.2034 43.2909 47.8009 43.2909 47.3944C43.2909 46.9879 43.2108 46.5854 43.0552 46.2098C42.8996 45.8342 42.6716 45.493 42.3842 45.2056L35.5038 38.3252V38.327ZM36.4412 55.5244L25.1867 44.2682L23.9363 45.5186L35.1925 56.7749L36.4412 55.5244ZM32.6915 59.2741L21.4353 48.0196L20.183 49.2701L31.4392 60.5264L32.6897 59.2759L32.6915 59.2741ZM28.9382 63.0273L17.682 51.7711L5.80142 63.6535C4.80666 64.6485 4.24783 65.998 4.24783 67.405C4.24783 68.812 4.80666 70.1614 5.80142 71.1564L9.5529 74.9097C10.0456 75.4025 10.6306 75.7935 11.2745 76.0602C11.9183 76.3269 12.6084 76.4642 13.3053 76.4642C14.0022 76.4642 14.6922 76.3269 15.3361 76.0602C15.9799 75.7935 16.5649 75.4025 17.0576 74.9097L28.9382 63.0273Z" fill="#8A2A48"/>
</svg>
