<svg width="50" height="50" viewBox="0 0 50 50" fill="none" xmlns="http://www.w3.org/2000/svg">
<path d="M39.5833 8.33331H10.4167C8.75905 8.33331 7.16934 8.99179 5.99724 10.1639C4.82514 11.336 4.16666 12.9257 4.16666 14.5833V35.4166C4.16666 37.0742 4.82514 38.664 5.99724 39.8361C7.16934 41.0082 8.75905 41.6666 10.4167 41.6666H39.5833C41.2409 41.6666 42.8306 41.0082 44.0027 39.8361C45.1748 38.664 45.8333 37.0742 45.8333 35.4166V14.5833C45.8333 12.9257 45.1748 11.336 44.0027 10.1639C42.8306 8.99179 41.2409 8.33331 39.5833 8.33331ZM38.1875 12.5L25 22.3958L11.8125 12.5H38.1875ZM39.5833 37.5H10.4167C9.86412 37.5 9.33422 37.2805 8.94352 36.8898C8.55282 36.4991 8.33332 35.9692 8.33332 35.4166V15.1041L23.75 26.6666C24.1106 26.9371 24.5492 27.0833 25 27.0833C25.4508 27.0833 25.8894 26.9371 26.25 26.6666L41.6667 15.1041V35.4166C41.6667 35.9692 41.4472 36.4991 41.0565 36.8898C40.6658 37.2805 40.1359 37.5 39.5833 37.5Z" fill="#F5D5E4"/>
</svg>
