<svg width="50" height="50" viewBox="0 0 50 50" fill="none" xmlns="http://www.w3.org/2000/svg">
<path d="M24.9802 30.0308C27.7429 30.0308 29.9824 27.7922 29.9824 25.0308C29.9824 22.2693 27.7429 20.0308 24.9802 20.0308C22.2176 20.0308 19.978 22.2693 19.978 25.0308C19.978 27.7922 22.2176 30.0308 24.9802 30.0308Z" fill="#F5D5E4"/>
<path d="M47.8997 30.0214C48.8757 29.0614 49.5502 27.8375 49.8403 26.4999C50.1304 25.1623 50.0236 23.7691 49.533 22.4912C49.0424 21.2134 48.1892 20.1065 47.0783 19.3064C45.9673 18.5063 44.6468 18.0477 43.2789 17.987C43.1757 17.9825 43.076 17.9486 42.9914 17.8894C42.9069 17.8301 42.841 17.748 42.8016 17.6526C42.7625 17.5569 42.7515 17.4521 42.77 17.3504C42.7884 17.2487 42.8356 17.1545 42.9058 17.0786C43.8216 16.0665 44.4247 14.811 44.642 13.4637C44.8593 12.1164 44.6816 10.735 44.1305 9.48645C43.5793 8.23791 42.6781 7.17563 41.5359 6.42799C40.3938 5.68035 39.0594 5.27933 37.6941 5.2734H37.6681C35.9161 5.27311 34.2277 5.92994 32.9368 7.11403C32.8609 7.18443 32.7664 7.23165 32.6644 7.25011C32.5625 7.26856 32.4574 7.25749 32.3616 7.21819C32.2662 7.17863 32.184 7.11278 32.1246 7.02831C32.0651 6.94385 32.031 6.84424 32.026 6.74111C31.9464 4.92655 31.1692 3.21272 29.8565 1.95686C28.5438 0.700992 26.7968 0 24.9797 0C23.1626 0 21.4156 0.700992 20.1029 1.95686C18.7901 3.21272 18.013 4.92655 17.9334 6.74111C17.9289 6.84422 17.895 6.94391 17.8357 7.02843C17.7765 7.11295 17.6943 7.17879 17.5988 7.21819C17.503 7.25749 17.3979 7.26856 17.296 7.25011C17.1941 7.23165 17.0995 7.18443 17.0236 7.11403C15.7321 5.92803 14.042 5.27034 12.2882 5.27131H12.2663C10.9025 5.28085 9.57046 5.68409 8.43051 6.4325C7.29057 7.18092 6.39126 8.24264 5.84079 9.48991C5.29031 10.7372 5.11212 12.1169 5.32764 13.463C5.54317 14.8091 6.14324 16.0643 7.05565 17.0776C7.12589 17.1534 7.17301 17.2477 7.19147 17.3494C7.20993 17.4511 7.19897 17.5559 7.15987 17.6515C7.12045 17.7469 7.05458 17.8291 6.97002 17.8883C6.88547 17.9476 6.78574 17.9814 6.68257 17.9859C4.87837 18.0816 3.17959 18.8653 1.93632 20.1757C0.693045 21.4861 0 23.2232 0 25.0292C0 26.8351 0.693045 28.5723 1.93632 29.8826C3.17959 31.193 4.87837 31.9768 6.68257 32.0724C6.78587 32.0775 6.8856 32.1118 6.97011 32.1713C7.05463 32.2309 7.12044 32.3133 7.15987 32.4089C7.19905 32.5047 7.21006 32.6097 7.1916 32.7116C7.17314 32.8134 7.12598 32.9079 7.05565 32.9839C6.13685 33.993 5.53145 35.2474 5.31316 36.5943C5.09487 37.9412 5.27313 39.3225 5.82622 40.5699C6.37931 41.8174 7.28337 42.8771 8.42828 43.6201C9.5732 44.3631 10.9096 44.7574 12.2746 44.7547H12.3007C14.0449 44.7595 15.7285 44.1153 17.0236 42.9474C17.0994 42.8772 17.1938 42.8301 17.2955 42.8117C17.3972 42.7932 17.5021 42.8042 17.5978 42.8433C17.6932 42.8827 17.7754 42.9485 17.8347 43.033C17.8939 43.1175 17.9278 43.2172 17.9323 43.3204C18.028 45.1238 18.8121 46.8218 20.123 48.0645C21.434 49.3073 23.1719 50 24.9786 50C26.7854 50 28.5233 49.3073 29.8342 48.0645C31.1452 46.8218 31.9293 45.1238 32.025 43.3204C32.0299 43.2172 32.0641 43.1176 32.1235 43.0331C32.1829 42.9487 32.2651 42.8828 32.3605 42.8433C32.4562 42.8042 32.5611 42.7932 32.6628 42.8117C32.7646 42.8301 32.8589 42.8772 32.9347 42.9474C34.228 44.1172 35.9104 44.7641 37.6545 44.762H37.6806C39.0468 44.7674 40.3851 44.3749 41.5318 43.6323C42.6784 42.8898 43.5839 41.8295 44.1375 40.581C44.691 39.3324 44.8688 37.9497 44.6489 36.6018C44.4291 35.254 43.8212 33.9993 42.8995 32.9912C42.8292 32.9152 42.7821 32.8207 42.7636 32.7188C42.7451 32.617 42.7561 32.512 42.7953 32.4162C42.8349 32.3208 42.9008 32.2386 42.9853 32.1792C43.0698 32.1199 43.1694 32.0857 43.2726 32.0807C45.0177 31.9943 46.6677 31.2599 47.8997 30.0214ZM24.9802 33.3641C23.3313 33.3641 21.7194 32.8753 20.3484 31.9597C18.9774 31.044 17.9088 29.7425 17.2778 28.2198C16.6468 26.697 16.4817 25.0215 16.8034 23.405C17.1251 21.7885 17.9191 20.3036 19.0851 19.1382C20.251 17.9727 21.7365 17.179 23.3537 16.8575C24.971 16.536 26.6473 16.701 28.1706 17.3317C29.694 17.9624 30.9961 19.0306 31.9122 20.401C32.8283 21.7714 33.3172 23.3825 33.3172 25.0307C33.3147 27.2401 32.4356 29.3583 30.8726 30.9206C29.3097 32.4828 27.1906 33.3616 24.9802 33.3641Z" fill="#F5D5E4"/>
</svg>
