<svg width="60" height="58" viewBox="0 0 60 58" fill="none" xmlns="http://www.w3.org/2000/svg">
<g clip-path="url(#clip0_21_104)">
<path d="M29.9963 0C13.4325 0 1.73118e-05 13.0266 1.73118e-05 29.0962C-0.00675001 35.1949 1.9707 41.1415 5.65289 46.0954C9.33508 51.0494 14.5358 54.7602 20.52 56.7035C22.02 56.9716 22.5675 56.0732 22.5675 55.3016C22.5675 54.6097 22.5413 52.7803 22.5263 50.3532C14.1825 52.1102 12.42 46.4518 12.42 46.4518C11.0588 43.09 9.09002 42.1953 9.09002 42.1953C6.36377 40.3913 9.29252 40.4275 9.29252 40.4275C12.3038 40.634 13.8863 43.4269 13.8863 43.4269C16.5638 47.8718 20.91 46.5894 22.62 45.8432C22.89 43.9631 23.6663 42.6807 24.525 41.9526C17.865 41.2172 10.86 38.7213 10.86 27.5747C10.86 24.3978 12.03 21.8004 13.95 19.7645C13.6388 19.0292 12.6113 16.0696 14.2425 12.0667C14.2425 12.0667 16.7625 11.2842 22.4925 15.048C24.9403 14.4018 27.4662 14.0729 30.0038 14.0699C32.5414 14.0748 35.0672 14.4049 37.515 15.0516C43.2413 11.2878 45.7575 12.0703 45.7575 12.0703C47.3925 16.0768 46.365 19.0328 46.0575 19.7682C47.9813 21.804 49.14 24.4014 49.14 27.5784C49.14 38.7539 42.1275 41.2136 35.445 41.9345C36.5213 42.8329 37.4813 44.6079 37.4813 47.3212C37.4813 51.2118 37.4438 54.3489 37.4438 55.3016C37.4438 56.0805 37.9838 56.9861 39.5063 56.6999C45.4847 54.752 50.6789 51.0397 54.356 46.087C58.0331 41.1342 60.0073 35.191 60 29.0962C60 13.0266 46.5675 0 29.9963 0Z" fill="#D4608E"/>
</g>
<defs>
<clipPath id="clip0_21_104">
<rect width="60" height="57.9606" fill="white"/>
</clipPath>
</defs>
</svg>
