<svg width="60" height="60" viewBox="0 0 60 60" fill="none" xmlns="http://www.w3.org/2000/svg">
<path d="M46.02 10.38C45.308 10.38 44.612 10.5911 44.0199 10.9867C43.4279 11.3823 42.9665 11.9445 42.694 12.6023C42.4216 13.2602 42.3503 13.984 42.4892 14.6823C42.6281 15.3807 42.9709 16.0221 43.4744 16.5256C43.9779 17.0291 44.6193 17.3719 45.3177 17.5108C46.016 17.6497 46.7398 17.5784 47.3977 17.306C48.0555 17.0335 48.6177 16.5721 49.0133 15.9801C49.4089 15.388 49.62 14.692 49.62 13.98C49.62 13.0252 49.2407 12.1095 48.5656 11.4344C47.8905 10.7593 46.9748 10.38 46.02 10.38ZM59.82 17.64C59.7617 15.1509 59.2955 12.6882 58.44 10.35C57.6772 8.3494 56.49 6.53784 54.96 5.04C53.4745 3.50228 51.6587 2.32253 49.65 1.59C47.318 0.708482 44.8525 0.23163 42.36 0.18C39.18 -1.67638e-07 38.16 0 30 0C21.84 0 20.82 -1.67638e-07 17.64 0.18C15.1475 0.23163 12.682 0.708482 10.35 1.59C8.34503 2.32995 6.5308 3.50868 5.04 5.04C3.50228 6.52553 2.32253 8.34132 1.59 10.35C0.708482 12.682 0.23163 15.1475 0.18 17.64C-1.67638e-07 20.82 0 21.84 0 30C0 38.16 -1.67638e-07 39.18 0.18 42.36C0.23163 44.8525 0.708482 47.318 1.59 49.65C2.32253 51.6587 3.50228 53.4745 5.04 54.96C6.5308 56.4913 8.34503 57.6701 10.35 58.41C12.682 59.2915 15.1475 59.7684 17.64 59.82C20.82 60 21.84 60 30 60C38.16 60 39.18 60 42.36 59.82C44.8525 59.7684 47.318 59.2915 49.65 58.41C51.6587 57.6775 53.4745 56.4977 54.96 54.96C56.4967 53.4677 57.685 51.6546 58.44 49.65C59.2955 47.3118 59.7617 44.8491 59.82 42.36C59.82 39.18 60 38.16 60 30C60 21.84 60 20.82 59.82 17.64ZM54.42 42C54.3982 43.9043 54.0533 45.7911 53.4 47.58C52.921 48.8856 52.1516 50.0653 51.15 51.03C50.1769 52.0215 48.9997 52.7893 47.7 53.28C45.9111 53.9333 44.0243 54.2782 42.12 54.3C39.12 54.45 38.01 54.48 30.12 54.48C22.23 54.48 21.12 54.48 18.12 54.3C16.1427 54.337 14.1738 54.0326 12.3 53.4C11.0573 52.8842 9.93407 52.1184 9 51.15C8.00427 50.1862 7.24453 49.0056 6.78 47.7C6.04757 45.8855 5.64133 43.9558 5.58 42C5.58 39 5.4 37.89 5.4 30C5.4 22.11 5.4 21 5.58 18C5.59345 16.0532 5.94885 14.1238 6.63 12.3C7.15814 11.0337 7.96879 9.90497 9 9C9.91144 7.9685 11.0379 7.14929 12.3 6.6C14.1287 5.94013 16.056 5.59524 18 5.58C21 5.58 22.11 5.4 30 5.4C37.89 5.4 39 5.4 42 5.58C43.9043 5.60184 45.7911 5.94674 47.58 6.6C48.9433 7.10596 50.1669 7.92854 51.15 9C52.1331 9.92154 52.9013 11.0482 53.4 12.3C54.0668 14.1268 54.4119 16.0553 54.42 18C54.57 21 54.6 22.11 54.6 30C54.6 37.89 54.57 39 54.42 42ZM30 14.61C26.9574 14.6159 23.9849 15.5236 21.458 17.2183C18.931 18.9129 16.9631 21.3186 15.8029 24.1313C14.6427 26.9439 14.3422 30.0374 14.9394 33.0208C15.5366 36.0042 17.0047 38.7436 19.1582 40.8929C21.3117 43.0423 24.054 44.505 27.0386 45.0964C30.0231 45.6878 33.116 45.3813 35.9264 44.2156C38.7368 43.0499 41.1386 41.0773 42.8284 38.5471C44.5181 36.0169 45.42 33.0426 45.42 30C45.424 27.9753 45.0276 25.9698 44.2537 24.0989C43.4798 22.2279 42.3437 20.5284 40.9106 19.0982C39.4775 17.6679 37.7758 16.535 35.9034 15.7648C34.0309 14.9945 32.0247 14.6021 30 14.61ZM30 39.99C28.0242 39.99 26.0927 39.4041 24.4499 38.3064C22.807 37.2087 21.5266 35.6484 20.7704 33.823C20.0143 31.9976 19.8165 29.9889 20.202 28.051C20.5874 26.1132 21.5389 24.3331 22.936 22.936C24.3331 21.5389 26.1132 20.5874 28.051 20.202C29.9889 19.8165 31.9976 20.0143 33.823 20.7704C35.6484 21.5266 37.2087 22.807 38.3064 24.4499C39.4041 26.0927 39.99 28.0242 39.99 30C39.99 31.3119 39.7316 32.611 39.2296 33.823C38.7275 35.035 37.9917 36.1363 37.064 37.064C36.1363 37.9917 35.035 38.7275 33.823 39.2296C32.611 39.7316 31.3119 39.99 30 39.99Z" fill="#D4608E"/>
</svg>
