<svg width="104" height="70" viewBox="0 0 104 70" fill="none" xmlns="http://www.w3.org/2000/svg">
<path d="M93.582 0H11.2739C8.54524 0 5.92832 1.00568 3.99885 2.7958C2.06938 4.58592 0.985413 7.01384 0.985413 9.54545V60.4545C0.985413 62.9862 2.06938 65.4141 3.99885 67.2042C5.92832 68.9943 8.54524 70 11.2739 70H93.582C96.3107 70 98.9276 68.9943 100.857 67.2042C102.787 65.4141 103.871 62.9862 103.871 60.4545V9.54545C103.871 7.01384 102.787 4.58592 100.857 2.7958C98.9276 1.00568 96.3107 0 93.582 0ZM83.2935 6.36364V31.8182H76.4345V6.36364H83.2935ZM31.851 38.1818C32.7605 38.1818 33.6328 37.8466 34.276 37.2499C34.9191 36.6532 35.2805 35.8439 35.2805 35V6.36364H42.1395V35C42.1395 35.8439 42.5008 36.6532 43.1439 37.2499C43.7871 37.8466 44.6594 38.1818 45.569 38.1818H48.9985V63.6364H28.4214V38.1818H31.851ZM55.8575 38.1818H59.287C60.1965 38.1818 61.0689 37.8466 61.712 37.2499C62.3552 36.6532 62.7165 35.8439 62.7165 35V6.36364H69.5755V35C69.5755 35.8439 69.9368 36.6532 70.58 37.2499C71.2231 37.8466 72.0954 38.1818 73.005 38.1818H76.4345V63.6364H55.8575V38.1818ZM55.8575 6.36364V31.8182H48.9985V6.36364H55.8575ZM28.4214 6.36364V31.8182H21.5624V6.36364H28.4214ZM7.84442 60.4545V9.54545C7.84442 8.70158 8.20574 7.89228 8.8489 7.29557C9.49206 6.69886 10.3644 6.36364 11.2739 6.36364H14.7034V35C14.7034 35.8439 15.0648 36.6532 15.7079 37.2499C16.3511 37.8466 17.2234 38.1818 18.1329 38.1818H21.5624V63.6364H11.2739C10.3644 63.6364 9.49206 63.3011 8.8489 62.7044C8.20574 62.1077 7.84442 61.2984 7.84442 60.4545ZM97.0115 60.4545C97.0115 61.2984 96.6502 62.1077 96.0071 62.7044C95.3639 63.3011 94.4916 63.6364 93.582 63.6364H83.2935V38.1818H86.723C87.6326 38.1818 88.5049 37.8466 89.148 37.2499C89.7912 36.6532 90.1525 35.8439 90.1525 35V6.36364H93.582C94.4916 6.36364 95.3639 6.69886 96.0071 7.29557C96.6502 7.89228 97.0115 8.70158 97.0115 9.54545V60.4545Z" fill="#8A2A48"/>
</svg>
