<svg width="50" height="50" viewBox="0 0 50 50" fill="none" xmlns="http://www.w3.org/2000/svg">
<path d="M25 22.9167C26.7259 22.9167 28.125 21.5176 28.125 19.7917C28.125 18.0658 26.7259 16.6667 25 16.6667C23.2741 16.6667 21.875 18.0658 21.875 19.7917C21.875 21.5176 23.2741 22.9167 25 22.9167Z" fill="#F5D5E4"/>
<path d="M25 4.16669C20.6085 4.16647 16.3943 5.89952 13.2734 8.98917C10.1526 12.0788 8.37726 16.2754 8.33334 20.6667C8.33334 32.0834 23.0208 44.7917 23.6458 45.3334C24.0232 45.6561 24.5034 45.8335 25 45.8335C25.4966 45.8335 25.9768 45.6561 26.3542 45.3334C27.0833 44.7917 41.6667 32.0834 41.6667 20.6667C41.6228 16.2754 39.8474 12.0788 36.7266 8.98917C33.6057 5.89952 29.3916 4.16647 25 4.16669ZM25 27.0834C23.5579 27.0834 22.1481 26.6557 20.949 25.8545C19.7499 25.0533 18.8153 23.9145 18.2634 22.5821C17.7115 21.2497 17.5671 19.7836 17.8484 18.3692C18.1298 16.9547 18.8243 15.6555 19.844 14.6357C20.8638 13.6159 22.163 12.9215 23.5775 12.6401C24.9919 12.3588 26.458 12.5032 27.7904 13.0551C29.1228 13.607 30.2616 14.5415 31.0628 15.7407C31.864 16.9398 32.2917 18.3495 32.2917 19.7917C32.2917 21.7256 31.5234 23.5802 30.156 24.9477C28.7885 26.3151 26.9339 27.0834 25 27.0834Z" fill="#F5D5E4"/>
</svg>
