<svg width="113" height="80" viewBox="0 0 113 80" fill="none" xmlns="http://www.w3.org/2000/svg">
<path d="M84.1345 22.1453C86.3245 22.1453 88.4653 21.4959 90.2861 20.2792C92.107 19.0626 93.5262 17.3333 94.3643 15.31C95.2024 13.2867 95.4216 11.0604 94.9944 8.9125C94.5672 6.76461 93.5126 4.79165 91.9641 3.24311C90.4155 1.69457 88.4426 0.640004 86.2947 0.212763C84.1468 -0.214478 81.9204 0.00479758 79.8972 0.842861C77.8739 1.68092 76.1446 3.10014 74.9279 4.92103C73.7112 6.74192 73.0618 8.8827 73.0618 11.0727C73.0618 14.0093 74.2284 16.8257 76.3049 18.9022C78.3815 20.9788 81.1978 22.1453 84.1345 22.1453ZM5.02032 47.8339C6.11736 48.1846 7.17496 48.6485 8.17603 49.218C11.6192 51.2322 15.5364 52.2938 19.5255 52.2938C23.5146 52.2938 27.4318 51.2322 30.875 49.218C33.0401 48.0057 35.4801 47.3691 37.9615 47.3691C40.4429 47.3691 42.8829 48.0057 45.048 49.218L46.2106 49.7716C49.5701 51.4071 53.2784 52.1965 57.0128 52.0711C60.7471 51.9456 64.3941 50.9092 67.6362 49.0519C69.8014 47.8396 72.2413 47.203 74.7227 47.203C77.2042 47.203 79.6441 47.8396 81.8092 49.0519C85.3178 51.0571 89.2837 52.1248 93.3248 52.1522C97.2243 52.1118 101.044 51.0423 104.397 49.0519C105.399 48.4824 106.456 48.0185 107.553 47.6678C108.371 47.6115 109.167 47.374 109.882 46.9727C110.598 46.5713 111.215 46.016 111.689 45.3469C112.164 44.6778 112.483 43.9116 112.626 43.1038C112.768 42.296 112.729 41.4667 112.511 40.6759C112.293 39.8851 111.903 39.1525 111.367 38.5311C110.832 37.9096 110.165 37.4149 109.415 37.0827C108.666 36.7505 107.851 36.589 107.031 36.61C106.211 36.631 105.406 36.834 104.674 37.2042C102.742 37.8037 100.885 38.6209 99.138 39.6401C97.3705 40.6606 95.3656 41.1978 93.3248 41.1978C91.284 41.1978 89.2791 40.6606 87.5117 39.6401C83.6764 37.4766 79.3476 36.3397 74.9442 36.3397C70.5408 36.3397 66.2119 37.4766 62.3767 39.6401C61.8559 39.8947 61.3196 40.1166 60.7712 40.3045L69.4079 31.6678C69.6058 31.4114 69.773 31.1327 69.9061 30.8374C70.1566 30.565 70.3792 30.2683 70.5705 29.9516C70.5963 29.6014 70.5963 29.2498 70.5705 28.8997C70.602 28.5497 70.602 28.1977 70.5705 27.8478C70.597 27.5161 70.597 27.1829 70.5705 26.8512C70.602 26.5013 70.602 26.1492 70.5705 25.7993C70.4066 25.4739 70.2217 25.1595 70.0169 24.8581C69.8731 24.5392 69.6869 24.2413 69.4632 23.9723L52.4667 5.53634C52.0195 5.04884 51.496 4.63745 50.9165 4.31834C50.5306 4.26726 50.1397 4.26726 49.7539 4.31834C49.4422 4.2677 49.1244 4.2677 48.8127 4.31834C48.0757 4.02179 47.278 3.90783 46.4874 3.98616L26.8888 11.2941C25.509 11.7938 24.384 12.821 23.7611 14.1498C23.1382 15.4786 23.0684 17.0004 23.567 18.3806C24.0667 19.7605 25.0939 20.8855 26.4227 21.5084C27.7515 22.1312 29.2733 22.201 30.6535 21.7024L46.875 15.7786L57.9477 27.5156L47.4286 38.0346C43.9042 36.6645 40.1199 36.0929 36.348 36.361C32.5762 36.629 28.9107 37.7301 25.6155 39.5848C23.848 40.6052 21.8432 41.1424 19.8023 41.1424C17.7615 41.1424 15.7566 40.6052 13.9892 39.5848C12.242 38.5656 10.3846 37.7483 8.45284 37.1488C7.74447 36.8845 6.98947 36.7681 6.23439 36.8068C5.47931 36.8454 4.74015 37.0383 4.06249 37.3736C3.38482 37.7089 2.78301 38.1794 2.29415 38.7562C1.8053 39.333 1.43976 40.0037 1.22007 40.7272C1.00039 41.4506 0.931208 42.2114 1.0168 42.9626C1.1024 43.7138 1.34096 44.4396 1.71777 45.095C2.09457 45.7505 2.60165 46.3219 3.20773 46.7739C3.81381 47.2259 4.50605 47.549 5.24177 47.7232L5.02032 47.8339ZM104.674 64.9412C102.742 65.5407 100.885 66.358 99.138 67.3772C97.3705 68.3976 95.3656 68.9348 93.3248 68.9348C91.284 68.9348 89.2791 68.3976 87.5117 67.3772C83.6764 65.2136 79.3476 64.0768 74.9442 64.0768C70.5408 64.0768 66.2119 65.2136 62.3767 67.3772C60.5943 68.4128 58.5696 68.9582 56.5082 68.9582C54.4468 68.9582 52.4221 68.4128 50.6397 67.3772C46.8045 65.2136 42.4756 64.0768 38.0722 64.0768C33.6688 64.0768 29.34 65.2136 25.5047 67.3772C23.7373 68.3976 21.7324 68.9348 19.6916 68.9348C17.6508 68.9348 15.6459 68.3976 13.8784 67.3772C12.1313 66.358 10.2739 65.5407 8.34212 64.9412C7.63375 64.6769 6.87875 64.5605 6.12367 64.5992C5.36859 64.6378 4.62943 64.8307 3.95176 65.166C3.27409 65.5013 2.67228 65.9718 2.18343 66.5486C1.69457 67.1253 1.32903 67.7961 1.10935 68.5196C0.889659 69.243 0.820481 70.0038 0.906078 70.755C0.991675 71.5062 1.23023 72.2319 1.60704 72.8874C1.98385 73.5429 2.49092 74.1143 3.097 74.5663C3.70308 75.0183 4.39532 75.3413 5.13104 75.5156C6.22809 75.8663 7.28568 76.3301 8.28675 76.8997C11.73 78.9138 15.6472 79.9754 19.6362 79.9754C23.6253 79.9754 27.5425 78.9138 30.9857 76.8997C33.1508 75.6874 35.5908 75.0508 38.0722 75.0508C40.5536 75.0508 42.9936 75.6874 45.1587 76.8997C48.6317 78.8855 52.563 79.9301 56.5636 79.9301C60.5642 79.9301 64.4955 78.8855 67.9684 76.8997C70.1335 75.6874 72.5735 75.0508 75.0549 75.0508C77.5363 75.0508 79.9763 75.6874 82.1414 76.8997C85.65 78.9049 89.6159 79.9726 93.657 80C97.5565 79.9595 101.376 78.89 104.73 76.8997C105.731 76.3301 106.788 75.8663 107.885 75.5156C108.583 75.3047 109.233 74.9585 109.797 74.4966C110.361 74.0347 110.829 73.4662 111.173 72.8236C111.518 72.181 111.732 71.4768 111.805 70.7513C111.877 70.0258 111.806 69.2931 111.595 68.5952C111.384 67.8972 111.038 67.2476 110.576 66.6835C110.114 66.1193 109.545 65.6517 108.903 65.3072C108.26 64.9628 107.556 64.7483 106.83 64.676C106.105 64.6037 105.372 64.675 104.674 64.8858V64.9412Z" fill="#8A2A48"/>
</svg>
