<svg width="80" height="80" viewBox="0 0 80 80" fill="none" xmlns="http://www.w3.org/2000/svg">
<path d="M36.0246 37.9745C35.9009 32.1113 34.6584 26.3258 32.3639 20.9288C17.7211 27.7664 6.96475 40.6676 3.28791 55.891C5.43967 60.8211 8.56008 65.2687 12.4639 68.9696C16.1763 56.0606 24.5797 45.0056 36.0246 37.9745ZM30.074 16.3005C27.6213 12.0272 24.4957 8.17735 20.8174 4.8991C6.1423 12.9301 -2.53374 29.5565 0.659298 47.1827C6.04554 33.7816 16.5277 22.6705 30.074 16.3005ZM60.3272 42.9253C61.7141 26.8311 55.9247 11.0755 44.6039 0.286926C42.2333 0.0127765 36.2827 -0.600029 28.6548 1.65768C37.9875 11.3285 43.3658 24.14 43.7331 37.5745C48.8724 40.4006 54.5051 42.2169 60.3272 42.9253ZM40.2175 44.4573C35.2016 47.5027 30.8121 51.4762 27.2841 56.1651C40.5078 65.4056 57.0374 68.2761 72.035 63.8736C75.2611 59.5513 77.5763 54.6191 78.8404 49.3759C74.5759 50.4625 70.1948 51.0257 65.7941 51.053C56.989 51.0369 48.2324 48.7792 40.2175 44.4573ZM24.3652 60.5354C21.914 64.7283 20.2207 69.3082 19.1886 74.1139C26.3422 78.5046 34.6997 80.524 43.0689 79.884C51.438 79.244 59.3913 75.9773 65.7941 70.5499C47.5873 73.1463 33.009 66.5506 24.3652 60.5354ZM53.4412 2.38337C62.3592 13.7364 66.7456 28.3792 65.4716 43.2801C70.3844 43.2905 75.2676 42.5174 79.937 40.9901C79.937 40.6676 79.9854 40.3451 79.9854 40.0225C79.9854 22.6382 68.9065 7.91475 53.4412 2.38337Z" fill="#8A2A48"/>
</svg>
